<svg xmlns="http://www.w3.org/2000/svg" viewBox="0 0 1280 1024">
  <path fill="#fff"
    d="M840 220.37a91.69 91.69 0 0 0-91.69-91.69c-2.76 0-5.48.14-8.18.38a91.68 91.68 0 0 0-146.58-.91 91.69 91.69 0 0 0-59.16 173.39L559.12 408h200.71l23.9-103A91.7 91.7 0 0 0 840 220.37z" />
  <path fill="#fff" d="M576.64 175.23a91.69 91.69 0 0 1 182.59 0" />
  <path fill="#fff" stroke="#000" stroke-width="2" stroke-linecap="round" stroke-linejoin="round" d="M576.25 293.72 598.82 384M744.11 293.72 721.54 384M667.94 285.28v93.06" />
  <rect fill="#884cee" x="218.74" y="519.64" width="150.35" height="218.68" rx="38.5" />
  <rect fill="#884cee" x="945.08" y="509.87" width="150.35" height="218.68" rx="38.5" />
  <path fill="#fff"
    d="M1033 575.77v104.46a171.9 171.9 0 0 1-6.83 48.11c-20 68.85-81.89 120.36-155.9 124.85-3.49.21-7 .33-10.56.33H458.42c-4.46 0-8.87-.18-13.22-.51-69.22-5.29-127.41-51.7-150-114.71a171.56 171.56 0 0 1-10.07-58.07V575.77a171.58 171.58 0 0 1 9.39-56.13c23.45-68 88.22-117.16 163.9-117.16h401.24c72 0 134.12 44.52 160.19 107.39a171.75 171.75 0 0 1 13.15 65.9z" />
  <path fill="#884cee" d="M445.74 402.17h423.7V854h-423.7z" />
  <path fill="none" stroke="#fff" stroke-width="4" stroke-linecap="round" stroke-linejoin="round"
    d="M739.6 685.6V545.02M699.57 687.55h80.06M699.57 545.02h80.06M531.66 686.58S520.87 541.11 579 541.11s44.44 146.44 44.44 146.44M533.61 621.17h89.81" />
</svg>
